<?xml version="1.0" encoding="UTF-8" standalone="no"?>
<svg xmlns:xlink="http://www.w3.org/1999/xlink" height="40.2px" width="160.0px" xmlns="http://www.w3.org/2000/svg">
  <g transform="matrix(1.0, 0.0, 0.0, 1.0, 80.0, 20.0)">
    <path d="M80.0 20.0 L-80.0 20.0 -80.0 -20.0 80.0 -20.0 80.0 20.0" fill="#cc0000" fill-rule="evenodd" stroke="none"/>
    <path d="M80.0 20.0 L-80.0 20.0 -80.0 -20.0 80.0 -20.0 80.0 20.0 Z" fill="none" stroke="#000000" stroke-linecap="round" stroke-linejoin="round" stroke-width="0.05"/>
    <path d="M31.25 -9.15 Q34.75 -12.45 40.6 -12.45 L42.1 -12.45 42.1 -3.9 Q38.3 -3.9 38.3 0.9 L38.3 19.5 27.7 19.5 27.7 -0.15 Q27.7 -5.95 31.25 -9.15 M3.95 -4.25 Q1.0 -4.25 -0.85 -1.75 -2.45 0.55 -2.45 3.85 -2.45 7.15 -1.2 9.1 1.0 11.95 3.95 11.95 5.65 11.95 7.85 10.15 10.2 8.3 10.25 6.85 L10.25 1.8 Q10.25 -0.25 8.2 -2.3 6.0 -4.25 3.95 -4.25 M10.25 -8.35 L10.25 -11.65 20.65 -11.65 20.65 19.4 10.25 19.4 10.25 16.4 Q8.4 19.95 1.9 19.95 -4.85 19.95 -8.95 15.3 -13.05 10.6 -13.05 3.65 -13.05 -3.1 -9.05 -7.65 -5.05 -12.25 1.7 -12.25 8.5 -12.25 10.25 -8.35 M59.9 -19.65 L59.9 -11.75 63.8 -11.75 63.8 -3.3 59.9 -3.3 59.9 8.65 Q59.9 10.25 63.8 11.05 L63.8 19.4 58.2 19.6 Q49.25 19.6 49.3 12.55 L49.3 -3.3 45.85 -3.3 45.85 -11.75 49.3 -11.75 49.3 -19.65 59.9 -19.65 M-54.05 -3.55 Q-54.05 -1.65 -50.6 -0.35 -43.75 2.35 -43.4 2.6 -39.2 5.0 -39.2 9.8 -39.2 14.95 -42.95 17.9 -46.05 20.2 -51.3 20.2 -56.0 20.2 -59.85 17.45 -63.75 15.4 -63.75 9.8 L-54.6 9.8 Q-54.15 13.0 -51.75 13.0 -50.6 13.0 -49.6 12.45 -48.55 11.85 -48.55 11.05 -48.55 9.25 -50.5 8.0 L-58.6 5.0 Q-62.7 2.4 -62.7 -2.3 -62.7 -7.0 -59.15 -9.7 -56.0 -12.25 -51.2 -12.25 -46.5 -12.25 -44.55 -10.5 -39.3 -7.9 -39.2 -2.65 L-48.1 -2.65 Q-48.45 -5.5 -50.7 -5.5 -51.75 -5.5 -52.9 -4.8 -54.05 -4.25 -54.05 -3.55 M-21.25 -11.75 L-17.4 -11.75 -17.4 -3.3 -21.25 -3.3 -21.25 8.65 Q-21.3 10.25 -17.4 11.05 L-17.4 19.4 -23.0 19.6 Q-31.9 19.6 -31.9 12.55 L-31.9 -3.3 -35.3 -3.3 -35.3 -11.75 -31.9 -11.75 -31.9 -19.65 -21.25 -19.65 -21.25 -11.75" fill="#cc0000" fill-rule="evenodd" stroke="none"/>
  </g>
</svg>
