<?xml version="1.0" encoding="UTF-8" standalone="no"?>
<svg xmlns:xlink="http://www.w3.org/1999/xlink" height="207.5px" width="232.0px" xmlns="http://www.w3.org/2000/svg">
  <g transform="matrix(1.0, 0.0, 0.0, 1.0, -359.0, -13.5)">
    <path d="M586.0 14.5 Q587.65 14.5 588.8 15.65 590.0 16.85 590.0 18.5 L590.0 216.0 Q590.0 217.65 588.8 218.8 587.65 220.0 586.0 220.0 L364.0 220.0 Q362.35 220.0 361.15 218.8 360.0 217.65 360.0 216.0 L360.0 18.5 Q360.0 16.85 361.15 15.65 362.35 14.5 364.0 14.5 L586.0 14.5" fill="#ffffff" fill-rule="evenodd" stroke="none"/>
    <path d="M586.0 14.5 L364.0 14.5 Q362.35 14.5 361.15 15.65 360.0 16.85 360.0 18.5 L360.0 216.0 Q360.0 217.65 361.15 218.8 362.35 220.0 364.0 220.0 L586.0 220.0 Q587.65 220.0 588.8 218.8 590.0 217.65 590.0 216.0 L590.0 18.5 Q590.0 16.85 588.8 15.65 587.65 14.5 586.0 14.5 Z" fill="none" stroke="#ff0000" stroke-linecap="round" stroke-linejoin="round" stroke-width="2.0"/>
  </g>
</svg>
