<?xml version="1.0" encoding="UTF-8" standalone="no"?>
<svg xmlns:xlink="http://www.w3.org/1999/xlink" height="18.65px" width="43.45px" xmlns="http://www.w3.org/2000/svg">
  <g transform="matrix(1.0, 0.0, 0.0, 1.0, 91.5, 8.7)">
    <path d="M-91.0 -1.45 L-83.9 -1.45 -81.75 -8.2 -79.55 -1.45 -72.45 -1.45 -78.2 2.75 -76.0 9.45 -81.75 5.3 -87.4 9.45 -87.45 9.45 -85.3 2.75 -91.0 -1.45 -81.75 0.65 -81.75 -8.2 -81.75 0.65 -91.0 -1.45 M-81.75 0.65 L-87.4 9.45 -81.75 0.65 -72.45 -1.45 -81.75 0.65 -76.0 9.45 -81.75 0.65" fill="#cc0000" fill-rule="evenodd" stroke="none"/>
    <path d="M-91.0 -1.45 L-81.75 0.65 -81.75 -8.2 M-72.45 -1.45 L-81.75 0.65 -76.0 9.45 M-87.4 9.45 L-81.75 0.65" fill="none" stroke="#ffcccc" stroke-linecap="round" stroke-linejoin="round" stroke-width="1.0"/>
    <path d="M-52.1 9.4 L-57.85 0.65 -48.55 -1.45 -57.85 0.65 -52.1 9.4 -57.85 5.3 -63.5 9.4 -63.55 9.4 -61.4 2.75 -67.15 -1.45 -57.85 0.65 -57.85 -8.2 -57.85 0.65 -67.15 -1.45 -60.0 -1.45 -57.85 -8.2 -55.65 -1.45 -48.55 -1.45 -54.3 2.75 -52.1 9.4 M-57.85 0.65 L-63.5 9.4 -57.85 0.65" fill="#ffcc00" fill-rule="evenodd" stroke="none"/>
    <path d="M-48.55 -1.45 L-57.85 0.65 -52.1 9.4 M-57.85 -8.2 L-57.85 0.65 -67.15 -1.45 M-63.5 9.4 L-57.85 0.65" fill="none" stroke="#ffff99" stroke-linecap="round" stroke-linejoin="round" stroke-width="1.0"/>
  </g>
</svg>
