<?xml version="1.0" encoding="UTF-8" standalone="no"?>
<svg xmlns:xlink="http://www.w3.org/1999/xlink" height="382.55px" width="232.05px" xmlns="http://www.w3.org/2000/svg">
  <g transform="matrix(1.0, 0.0, 0.0, 1.0, -358.95, -13.5)">
    <path d="M361.1 234.15 Q362.3 233.2 363.95 233.25 L585.95 233.25 Q587.6 233.2 588.75 234.15 589.95 235.05 589.95 236.4 L589.95 391.9 Q589.95 393.15 588.75 394.1 587.6 395.0 585.95 395.05 L363.95 395.05 Q362.3 395.0 361.1 394.1 359.95 393.15 359.95 391.9 L359.95 236.4 Q359.95 235.05 361.1 234.15 M586.0 14.5 Q587.65 14.5 588.8 15.65 590.0 16.85 590.0 18.5 L590.0 216.0 Q590.0 217.65 588.8 218.8 587.65 220.0 586.0 220.0 L364.0 220.0 Q362.35 220.0 361.15 218.8 360.0 217.65 360.0 216.0 L360.0 18.5 Q360.0 16.85 361.15 15.65 362.35 14.5 364.0 14.5 L586.0 14.5" fill="#ffffff" fill-rule="evenodd" stroke="none"/>
    <path d="M586.0 14.5 L364.0 14.5 Q362.35 14.5 361.15 15.65 360.0 16.85 360.0 18.5 L360.0 216.0 Q360.0 217.65 361.15 218.8 362.35 220.0 364.0 220.0 L586.0 220.0 Q587.65 220.0 588.8 218.8 590.0 217.65 590.0 216.0 L590.0 18.5 Q590.0 16.85 588.8 15.65 587.65 14.5 586.0 14.5 M361.1 234.15 Q359.95 235.05 359.95 236.4 L359.95 391.9 Q359.95 393.15 361.1 394.1 362.3 395.0 363.95 395.05 L585.95 395.05 Q587.6 395.0 588.75 394.1 589.95 393.15 589.95 391.9 L589.95 236.4 Q589.95 235.05 588.75 234.15 587.6 233.2 585.95 233.25 L363.95 233.25 Q362.3 233.2 361.1 234.15" fill="none" stroke="#ff0000" stroke-linecap="round" stroke-linejoin="round" stroke-width="2.0"/>
  </g>
</svg>
