<?xml version="1.0" encoding="UTF-8" standalone="no"?>
<svg xmlns:xlink="http://www.w3.org/1999/xlink" height="383.5px" width="579.0px" xmlns="http://www.w3.org/2000/svg">
  <g transform="matrix(1.0, 0.0, 0.0, 1.0, -12.0, -13.5)">
    <path d="M359.95 236.4 Q359.95 235.05 361.1 234.15 362.3 233.2 363.95 233.25 L585.95 233.25 Q587.6 233.2 588.75 234.15 589.95 235.05 589.95 236.4 L589.95 391.9 Q589.95 393.15 588.75 394.1 587.6 395.0 585.95 395.05 L363.95 395.05 Q362.3 395.0 361.1 394.1 359.95 393.15 359.95 391.9 L359.95 236.4 M336.3 18.15 Q338.0 20.35 338.0 23.4 L338.0 388.6 Q338.0 391.65 336.3 393.8 334.7 396.0 332.35 396.0 L18.65 396.0 Q16.3 396.0 14.65 393.8 13.0 391.65 13.0 388.6 L13.0 23.4 Q13.0 20.35 14.65 18.15 16.3 16.0 18.65 16.0 L332.35 16.0 Q334.7 16.0 336.3 18.15 M588.8 15.65 Q590.0 16.85 590.0 18.5 L590.0 216.0 Q590.0 217.65 588.8 218.8 587.65 220.0 586.0 220.0 L364.0 220.0 Q362.35 220.0 361.15 218.8 360.0 217.65 360.0 216.0 L360.0 18.5 Q360.0 16.85 361.15 15.65 362.35 14.5 364.0 14.5 L586.0 14.5 Q587.65 14.5 588.8 15.65" fill="#ffffff" fill-rule="evenodd" stroke="none"/>
    <path d="M588.8 15.65 Q587.65 14.5 586.0 14.5 L364.0 14.5 Q362.35 14.5 361.15 15.65 360.0 16.85 360.0 18.5 L360.0 216.0 Q360.0 217.65 361.15 218.8 362.35 220.0 364.0 220.0 L586.0 220.0 Q587.65 220.0 588.8 218.8 590.0 217.65 590.0 216.0 L590.0 18.5 Q590.0 16.85 588.8 15.65 M336.3 18.15 Q334.7 16.0 332.35 16.0 L18.65 16.0 Q16.3 16.0 14.65 18.15 13.0 20.35 13.0 23.4 L13.0 388.6 Q13.0 391.65 14.65 393.8 16.3 396.0 18.65 396.0 L332.35 396.0 Q334.7 396.0 336.3 393.8 338.0 391.65 338.0 388.6 L338.0 23.4 Q338.0 20.35 336.3 18.15 M359.95 236.4 L359.95 391.9 Q359.95 393.15 361.1 394.1 362.3 395.0 363.95 395.05 L585.95 395.05 Q587.6 395.0 588.75 394.1 589.95 393.15 589.95 391.9 L589.95 236.4 Q589.95 235.05 588.75 234.15 587.6 233.2 585.95 233.25 L363.95 233.25 Q362.3 233.2 361.1 234.15 359.95 235.05 359.95 236.4" fill="none" stroke="#ff0000" stroke-linecap="round" stroke-linejoin="round" stroke-width="2.0"/>
  </g>
</svg>
